<svg xmlns="http://www.w3.org/2000/svg" fill="none" viewBox="0 0 114 40" height="40" width="114">
<path fill="black" d="M59.5591 0H51.2107C51.2086 5.54652 51.2107 7.37701 51.2107 10.4624V11.1925C50.9901 11.0782 50.7673 10.9703 50.5423 10.8687C48.4857 9.93548 46.2449 9.45299 43.9827 9.45087C41.7248 9.45299 39.4861 9.93548 37.4338 10.8666C35.2766 11.8443 33.3228 13.3193 31.7697 15.2513L36.1935 21.82L37.2517 20.2498C38.1108 19.0054 39.2655 18.0743 40.5637 17.4881C41.6584 16.9887 42.8259 16.7475 43.9827 16.7475C45.1438 16.7475 46.3135 16.9887 47.4082 17.4881C48.2587 17.8754 49.0492 18.4087 49.7347 19.0816C50.4245 19.7567 50.9708 20.5333 51.3649 21.3713C51.8727 22.4421 52.119 23.5849 52.119 24.717C52.119 25.8576 51.8748 27.0067 51.3628 28.0839C50.9686 28.9176 50.4245 29.6901 49.739 30.363C49.0513 31.0381 48.2587 31.5756 47.406 31.9628C46.3092 32.4622 45.1417 32.7035 43.9806 32.7014C42.8238 32.7014 41.6584 32.4622 40.5637 31.9628C39.2655 31.3745 38.1086 30.4434 37.2496 29.197L28.4942 16.1994L28.4835 16.1846C26.8361 13.7891 24.6188 11.9988 22.1274 10.8687C20.073 9.93548 17.8322 9.45299 15.5721 9.45087C13.3141 9.45299 11.0755 9.93548 9.02105 10.8666C8.28412 11.2052 7.56217 11.6009 6.86594 12.0622C6.02403 12.6188 5.25496 13.2431 4.56087 13.9203C3.86892 14.5995 3.23267 15.355 2.66283 16.1825C2.19153 16.866 1.78664 17.5749 1.44174 18.2986C0.494862 20.3111 0.00428452 22.5056 0 24.717C0 26.9348 0.494862 29.1356 1.44602 31.1523C1.78879 31.874 2.19367 32.5808 2.66283 33.2622C3.23053 34.0875 3.86678 34.8408 4.55658 35.5201C5.25068 36.1994 6.01975 36.8237 6.8638 37.3824C7.56217 37.8437 8.28197 38.2415 9.02105 38.578C11.0733 39.5091 13.312 39.9916 15.5699 39.9937C17.8279 39.9916 20.0687 39.5091 22.1231 38.5759C23.7812 37.8247 25.3172 36.7814 26.6433 35.463L22.363 29.1081L22.3052 29.1927C21.4462 30.4371 20.2893 31.3682 18.9933 31.9565C17.8964 32.4559 16.7268 32.6993 15.5678 32.6971C14.4088 32.6971 13.2434 32.458 12.1509 31.9586C11.2961 31.5713 10.5014 31.0338 9.81369 30.3588C9.12817 29.6879 8.58617 28.9155 8.192 28.0818C7.68214 27.0046 7.43364 25.8555 7.43578 24.717C7.43578 23.5849 7.68 22.44 8.18771 21.3692C8.58189 20.5312 9.12817 19.7525 9.81797 19.0795C10.5035 18.4066 11.294 17.8733 12.1466 17.486C13.2413 16.9866 14.4088 16.7454 15.5678 16.7454C16.7289 16.7454 17.8986 16.9866 18.9954 17.486C20.2915 18.0743 21.4462 19.0054 22.3052 20.2498L31.0606 33.2474L31.0713 33.2622C32.7187 35.6577 34.9381 37.4501 37.4317 38.578C39.484 39.5091 41.7226 39.9916 43.9806 39.9937C46.2385 39.9916 48.4772 39.5091 50.5295 38.578C51.2685 38.2415 51.9905 37.8437 52.6889 37.3824C53.5329 36.8237 54.3041 36.1994 54.9982 35.5201C55.688 34.8408 56.3243 34.0875 56.8898 33.2622C57.359 32.5808 57.7639 31.8761 58.1066 31.1544C59.1114 29.0404 59.5826 26.7782 59.5527 24.5414V0H59.5591Z"></path>
<path fill="black" d="M63.5215 39.5622H71.857L71.8634 23.9765C71.8634 23.4623 71.9063 22.9438 71.9856 22.4338C72.1676 21.2805 72.6411 20.252 73.4594 19.3971C74.5348 18.2776 75.893 17.7316 77.4247 17.5581C77.7846 17.5179 78.1445 17.5031 78.5173 17.4756H81.8357V9.36426H78.5216C77.7504 9.38965 77.0199 9.40023 76.2915 9.44679C74.7919 9.5399 73.3309 9.82982 71.917 10.3398C68.5686 11.546 66.1179 13.7088 64.704 16.9423C63.8814 18.8194 63.5301 20.7959 63.5236 22.8316V39.5643L63.5215 39.5622Z"></path>
<path fill="black" d="M98.4013 32.7371C93.924 32.735 90.2565 29.1226 90.2608 24.7167C90.2629 20.2939 93.9262 16.7091 98.4442 16.7091C102.949 16.7091 106.613 20.3172 106.6 24.74C106.587 29.1671 102.924 32.7413 98.4035 32.7371M98.4463 9.45905C89.7852 9.43366 82.7371 16.4022 82.855 24.9537C82.9728 33.1751 89.7938 39.9871 98.4442 39.9998C107.045 39.9892 114.006 33.1413 113.999 24.6935C113.993 16.2964 107.052 9.48445 98.4463 9.45905Z"></path>
</svg>
