<?xml version="1.0" encoding="UTF-8"?>
<svg id="loader__logo" xmlns="http://www.w3.org/2000/svg" version="1.1" viewBox="0 0 644.6 170.022">
  <!-- Generator: Adobe Illustrator 29.6.1, SVG Export Plug-In . SVG Version: 2.1.1 Build 9)  -->
  <defs>
    <style>
      .st0 {
        fill: #fff;
      }
    </style>
  </defs>
  <g>
    <g>
      <path class="st0" d="M110.819,32.682h11.105v19.413c0,12.462-7.587,18.735-20.982,18.735h-19.54c-13.394,0-20.982-6.273-20.982-18.735v-19.413h11.105v19.413c0,6.104,3.857,8.944,9.876,8.944h19.54c5.977,0,9.876-2.84,9.876-8.944v-19.413Z"/>
      <path class="st0" d="M226.747,70.661l-6.867-10.851h-29.713v10.851h-10.724v-37.979h40.565c13.649,0,17.845,6.104,17.845,13.733h0c0,5.171-1.907,9.495-7.46,11.741l8.435,12.504h-12.123.042ZM190.167,42.176v8.52h29.883c5.256,0,7.206-1.187,7.206-4.239h0c0-3.009-1.907-4.281-7.206-4.281h-29.883Z"/>
      <path class="st0" d="M357.257,60.191c0,7.206-5.807,10.47-15.047,10.47h-45.778v-37.979h43.913c9.664,0,15.047,3.221,15.047,10.427,0,5.256-2.586,7.418-6.74,8.308,4.663.593,8.605,2.628,8.605,8.774ZM307.156,41.244v6.273h33.274c2.458,0,4.323-.424,4.323-3.009,0-2.416-1.865-3.221-4.408-3.221h-33.232l.042-.042ZM307.156,62.098h35.097c2.67,0,4.408-.763,4.408-3.179,0-2.162-1.484-3.179-4.323-3.179h-35.139v6.358h-.042Z"/>
      <path class="st0" d="M474.458,70.661h-12.038l-4.874-6.697h-33.698l-4.875,6.697h-12.038l28.442-37.979h10.639l28.442,37.979h0ZM440.718,41.413l-10.427,13.903h20.855l-10.427-13.903Z"/>
      <path class="st0" d="M573.559,32.682h11.021v37.979h-10.385l-39.039-24.627v24.627h-11.021v-37.979h10.385l39.039,24.627v-24.627Z"/>
    </g>
    <path class="st0" d="M.4.807v101.941h644.2V.807H.4ZM641.633,99.738H3.367V3.774h638.266v95.965Z"/>
  </g>
  <g>
    <path class="st0" d="M251.459,138.734h4.62v14.751c0,3.306-.636,6.019-1.907,8.223-1.272,2.162-3.179,3.815-5.722,4.875s-5.765,1.611-9.622,1.611h-19.54c-3.857,0-7.079-.509-9.622-1.611-2.543-1.06-4.493-2.67-5.765-4.875s-1.95-4.917-1.95-8.223v-14.751h4.663v14.751c0,2.374.466,4.366,1.399,5.934.933,1.568,2.331,2.755,4.196,3.561s4.196,1.187,7.036,1.187h19.498c2.84,0,5.171-.381,7.036-1.187s3.264-1.992,4.196-3.561,1.399-3.561,1.399-5.934v-14.751h.085Z"/>
    <path class="st0" d="M343.482,143.694c-1.229-.848-2.967-1.272-5.256-1.272h-26.916c-2.035,0-3.518.339-4.535,1.06s-1.526,1.738-1.526,3.052.466,2.289,1.441,2.967c.975.721,2.458,1.144,4.451,1.314h.805l27.255,1.06c2.543.085,4.62.466,6.231,1.102,1.611.636,2.798,1.568,3.561,2.755s1.187,2.628,1.187,4.323c0,1.611-.339,3.009-1.017,4.196-.678,1.187-1.78,2.162-3.306,2.84-1.484.678-3.476,1.017-5.934,1.017h-27.636c-3.433,0-6.146-.636-8.138-1.865-1.992-1.229-3.094-3.009-3.349-5.298l4.154-1.653c.127,1.695.805,2.967,2.035,3.815s2.967,1.272,5.298,1.272h27.636c2.162,0,3.73-.339,4.747-1.06,1.017-.721,1.526-1.78,1.526-3.221,0-1.102-.254-1.992-.763-2.586-.509-.636-1.272-1.06-2.247-1.356-.975-.297-2.289-.466-3.984-.509l-27.255-1.102c-2.543-.085-4.578-.466-6.146-1.187-1.568-.678-2.713-1.611-3.433-2.755s-1.102-2.458-1.102-4.027c0-2.416.805-4.323,2.458-5.765s4.239-2.162,7.799-2.162h26.662c3.391,0,6.104.636,8.096,1.865,1.992,1.229,3.137,3.009,3.433,5.298l-4.239,1.441c-.127-1.568-.805-2.798-2.035-3.645l.042.085Z"/>
    <path class="st0" d="M442.668,168.193l-6.146-6.994h-33.316l-6.104,6.994h-5.171l25.814-29.459h4.281l25.729,29.459h-5.129.042ZM406.384,157.639h27.043l-13.522-15.471s-13.522,15.471-13.521,15.471Z"/>
  </g>
</svg>